<svg width="24.000000" height="24.000000" viewBox="0 0 24 24" fill="none" xmlns="http://www.w3.org/2000/svg" xmlns:xlink="http://www.w3.org/1999/xlink">
	<desc>
			Created with Pixso.
	</desc>
	<defs/>
	<rect id="Rectangle 403" width="24.000000" height="24.000000" fill="#D9D9D9" fill-opacity="0"/>
	<path id="Vector" d="M8.81 20.98C7.86 20.98 7 20.21 7 19.16L7 4.81C7 3.86 7.76 3 8.81 3L16.18 3C17.13 3 18 3.76 18 4.81L18 19.16C18 20.12 17.13 20.98 16.18 20.98L8.81 20.98Z" stroke="#000000" stroke-opacity="1.000000" stroke-width="1.000000" stroke-linejoin="round"/>
	<path id="Vector" d="M8.72 17.34L16.27 17.34" stroke="#000000" stroke-opacity="1.000000" stroke-width="1.000000" stroke-linejoin="round" stroke-linecap="round"/>
	<path id="Vector" d="M13.02 19.16C13.02 19.53 12.72 19.83 12.35 19.83C11.98 19.83 11.68 19.53 11.68 19.16C11.68 18.79 11.98 18.49 12.35 18.49C12.72 18.49 13.02 18.79 13.02 19.16Z" fill="#000000" fill-opacity="1.000000" fill-rule="evenodd"/>
</svg>
