<svg width="54.591797" height="50.569824" viewBox="0 0 54.5918 50.5698" fill="none" xmlns="http://www.w3.org/2000/svg" xmlns:xlink="http://www.w3.org/1999/xlink">
	<desc>
			Created with Pixso.
	</desc>
	<defs>
		<clipPath id="clip2_6031">
			<rect id="svg" width="54.591797" height="50.569824" fill="white" fill-opacity="0"/>
		</clipPath>
	</defs>
	<g clip-path="url(#clip2_6031)">
		<path id="Vector" d="M22.47 46.14L22.47 50.56L26.45 48.31L22.47 46.14Z" fill="#000000" fill-opacity="1.000000" fill-rule="nonzero"/>
		<path id="Vector" d="M30.27 46.14L30.27 50.56L26.29 48.31L30.27 46.14Z" fill="#000000" fill-opacity="1.000000" fill-rule="nonzero"/>
		<path id="Vector" d="M38.07 18L37.7 34.47C37.7 34.47 35.65 37 27.55 37C19.57 37 18.3 34.1 18.3 34.1L17.99 18.98C13.7 19.04 9.47 15.6 9.47 11.35C9.47 7.08 12.98 3.6 17.27 3.6C18.36 3.6 19.45 3.83 20.41 4.25C21.68 1.74 24.4 0 27.43 0C30.33 0 32.69 1.62 34.08 3.95C35.35 3 36.92 2.52 38.67 2.52C42.96 2.52 46.47 5.93 46.47 10.27C46.53 14.52 42.42 18 38.07 18Z" fill="#FFFFFF" fill-opacity="1.000000" fill-rule="nonzero"/>
		<path id="Vector" d="M9.37 21.59C9.37 21.04 9.33 20.57 9.27 20.32C9.16 19.71 8.87 19.15 8.35 18.69C7.85 18.25 7.29 18.04 6.58 18.04C5.87 18.04 5.22 18.29 4.7 18.8C4.14 18.29 3.54 18.04 2.83 18.04C2.18 18.04 1.52 18.29 1.06 18.69C0.6 19.1 0.25 19.61 0.1 20.32C0.04 20.62 0 21.04 0 21.59L0 25.96C0 26.21 0.2 26.3 0.35 26.3C0.6 26.3 0.7 26.1 0.7 25.96L0.7 21.43C0.7 20.62 0.85 19.96 1.2 19.46C1.56 18.9 2.12 18.64 2.89 18.64C3.43 18.64 3.89 18.85 4.31 19.25C3.95 19.86 3.79 20.52 3.79 21.43L3.79 25.9C3.79 26.1 3.95 26.25 4.14 26.25C4.41 26.25 4.5 26.05 4.5 25.9L4.5 21.38C4.5 20.73 4.6 20.23 4.75 19.86C4.91 20.27 5.02 20.88 5.02 21.59L5.02 25.96C5.02 26.15 5.16 26.3 5.37 26.3C5.62 26.3 5.72 26.1 5.72 25.96L5.72 21.29C5.72 20.37 5.56 19.71 5.22 19.2C5.56 18.85 6.02 18.64 6.58 18.64C7.1 18.64 7.54 18.8 7.91 19.1C8.25 19.35 8.52 19.77 8.66 20.27C8.77 20.57 8.77 20.93 8.77 21.43L8.77 25.96C8.77 26.15 8.91 26.3 9.12 26.3C9.37 26.3 9.47 26.1 9.47 25.96L9.43 25.69L9.37 21.59Z" fill="#000000" fill-opacity="1.000000" fill-rule="nonzero"/>
		<path id="Vector" d="M17.59 19.31C16.78 18.5 15.77 18.1 14.6 18.1C13.43 18.1 12.41 18.5 11.61 19.31C10.8 20.12 10.39 21.14 10.39 22.31C10.39 23.47 10.8 24.49 11.66 25.3C12.52 26.1 13.54 26.52 14.7 26.52C15.56 26.52 16.38 26.26 17.04 25.81L17.04 25.91C17.04 26.26 17.24 26.35 17.39 26.35C17.54 26.35 17.75 26.21 17.75 25.91L17.75 25.25C18.56 24.39 18.95 23.41 18.95 22.31C18.86 21.09 18.41 20.07 17.59 19.31ZM16.93 22.35L16.93 24.99C16.22 25.6 15.46 25.91 14.6 25.91C13.64 25.91 12.78 25.55 12.12 24.84C11.41 24.18 11.1 23.37 11.1 22.35C11.1 21.34 11.46 20.53 12.16 19.82C12.88 19.1 13.68 18.76 14.7 18.76C15.66 18.76 16.53 19.1 17.18 19.82C17.85 20.53 18.25 21.34 18.25 22.31C18.25 23.02 18.05 23.62 17.7 24.18L17.7 22.35C17.59 21.85 16.93 21.85 16.93 22.35Z" fill="#000000" fill-opacity="1.000000" fill-rule="nonzero"/>
		<path id="Vector" d="M23.43 26.52C24.39 26.52 25.3 26.21 26.11 25.54C26.32 25.39 26.47 25.29 26.57 25.14C26.62 25.08 26.67 24.98 26.67 24.89C26.67 24.73 26.57 24.58 26.37 24.58L26.16 24.58L26.11 24.68L26.11 24.79C25.76 25.1 25.35 25.39 24.95 25.6C24.49 25.81 23.98 25.96 23.53 25.96C22.51 25.96 21.7 25.6 21.04 24.89C20.33 24.17 19.98 23.37 19.98 22.35C19.98 21.39 20.33 20.52 21.04 19.87C21.7 19.15 22.51 18.85 23.53 18.85C24.49 18.85 25.35 19.2 26.06 19.91L26.22 20.02L26.42 20.02C26.52 19.96 26.62 19.81 26.62 19.71L26.57 19.56C26.52 19.52 26.47 19.41 26.42 19.41C25.66 18.6 24.64 18.14 23.43 18.14C22.26 18.14 21.25 18.54 20.43 19.35C19.62 20.17 19.22 21.18 19.22 22.35C19.22 23.46 19.62 24.48 20.43 25.35C21.3 26.1 22.31 26.52 23.43 26.52Z" fill="#000000" fill-opacity="1.000000" fill-rule="nonzero"/>
		<path id="Vector" d="M33.87 19.31C33.06 18.5 32.04 18.1 30.87 18.1C29.71 18.1 28.69 18.5 27.89 19.31C27.08 20.12 26.66 21.14 26.66 22.31C26.66 23.47 27.08 24.49 27.89 25.3C28.75 26.1 29.77 26.52 30.92 26.52C31.79 26.52 32.6 26.26 33.27 25.81L33.27 25.91C33.27 26.26 33.46 26.35 33.62 26.35C33.77 26.35 33.98 26.21 33.98 25.91L33.98 25.25C34.79 24.39 35.18 23.41 35.18 22.31C35.14 21.04 34.73 20.07 33.87 19.31ZM33.21 22.35L33.21 24.99C32.5 25.6 31.73 25.91 30.87 25.91C29.91 25.91 29.06 25.55 28.35 24.84C27.64 24.18 27.33 23.37 27.33 22.35C27.33 21.34 27.68 20.53 28.39 19.82C29.1 19.1 29.91 18.76 30.92 18.76C31.89 18.76 32.75 19.1 33.41 19.82C34.12 20.53 34.48 21.34 34.48 22.31C34.48 23.02 34.27 23.68 33.91 24.23L33.91 22.41C33.87 21.85 33.21 21.85 33.21 22.35Z" fill="#000000" fill-opacity="1.000000" fill-rule="nonzero"/>
		<path id="Vector" d="M36.21 26.36C36.46 26.36 36.56 26.16 36.56 26.01L36.56 22.71C36.56 21.85 36.6 21.34 36.71 20.99C36.87 20.43 37.16 19.97 37.58 19.62C37.98 19.26 38.43 19.06 38.95 18.91C39.2 18.91 39.3 18.7 39.3 18.55C39.3 18.3 39.14 18.25 39.05 18.2C38.79 18.2 38.39 18.3 38.03 18.5C37.41 18.81 36.91 19.2 36.56 19.77C36.56 19.47 36.56 19.06 36.56 18.6C36.56 18.1 35.85 18.1 35.85 18.6L35.85 26.01C35.85 26.21 36 26.36 36.21 26.36Z" fill="#000000" fill-opacity="1.000000" fill-rule="nonzero"/>
		<path id="Vector" d="M46.65 19.31C45.84 18.5 44.83 18.1 43.66 18.1C42.5 18.1 41.48 18.5 40.67 19.31C39.86 20.12 39.45 21.14 39.45 22.31C39.45 23.47 39.86 24.49 40.67 25.3C41.53 26.1 42.55 26.52 43.71 26.52C44.88 26.52 45.89 26.1 46.71 25.25C47.52 24.39 47.92 23.37 47.92 22.2C47.92 21.09 47.52 20.07 46.65 19.31ZM43.66 18.76C44.63 18.76 45.49 19.1 46.15 19.82C46.86 20.53 47.21 21.34 47.21 22.31C47.21 23.32 46.86 24.18 46.1 24.84C45.44 25.55 44.63 25.85 43.61 25.85C42.65 25.85 41.79 25.5 41.13 24.79C40.42 24.08 40.06 23.27 40.06 22.31C40.06 21.29 40.42 20.48 41.13 19.77C41.79 19.06 42.65 18.76 43.66 18.76Z" fill="#000000" fill-opacity="1.000000" fill-rule="nonzero"/>
		<path id="Vector" d="M54.52 20.23C54.41 19.62 54.11 19.1 53.55 18.64C53.04 18.25 52.43 18 51.78 18C51.27 18 50.81 18.1 50.41 18.35C50.1 18.54 49.8 18.75 49.6 19.06L49.6 18.54C49.6 18.04 48.89 18.04 48.89 18.54L48.89 25.96C48.89 26.21 49.09 26.31 49.24 26.31C49.49 26.31 49.6 26.1 49.6 25.96L49.6 21.75C49.6 21.29 49.6 20.89 49.64 20.68C49.75 20.06 49.95 19.62 50.31 19.25C50.71 18.91 51.22 18.7 51.73 18.7C52.13 18.7 52.54 18.81 52.84 19C53.3 19.25 53.6 19.66 53.7 20.18C53.81 20.48 53.81 21.04 53.81 21.75L53.81 25.96C53.81 26.16 53.96 26.31 54.16 26.31C54.26 26.31 54.36 26.25 54.41 26.21L54.57 26.21L54.57 21.39C54.62 20.93 54.57 20.52 54.52 20.23Z" fill="#000000" fill-opacity="1.000000" fill-rule="nonzero"/>
		<path id="Vector" d="M15.87 36.1C15.51 36.1 15.46 36.3 15.46 36.46C15.46 36.71 15.66 36.81 15.82 36.81C16.22 36.81 16.53 36.91 16.87 37.12C17.54 37.47 17.89 38.08 17.89 38.84C17.89 39.39 17.7 39.85 17.29 40.26C16.87 40.66 16.43 40.87 15.87 40.87C15.06 40.87 14.5 40.51 14.04 39.8C13.89 39.6 13.79 39.3 13.79 38.93C13.79 38.68 13.64 38.54 13.43 38.54C13.18 38.54 13.08 38.74 13.08 38.89C13.08 39.6 13.37 40.26 13.93 40.72C14.45 41.22 15.1 41.48 15.82 41.48C16.58 41.48 17.24 41.22 17.75 40.66C18.25 40.16 18.56 39.5 18.56 38.74C18.56 37.98 18.3 37.37 17.8 36.85C17.29 36.41 16.62 36.1 15.87 36.1Z" fill="#000000" fill-opacity="1.000000" fill-rule="nonzero"/>
		<path id="Vector" d="M15.71 33.97C16.37 33.97 16.83 34.22 17.13 34.78C17.18 34.87 17.29 35.08 17.33 35.29C17.33 35.54 17.48 35.7 17.69 35.7C17.89 35.7 18.04 35.54 18.04 35.33C18.04 34.73 17.75 34.22 17.23 33.91C16.77 33.51 16.27 33.31 15.66 33.31C15.06 33.31 14.5 33.51 14.04 33.97C13.63 34.48 13.37 34.99 13.37 35.58C13.37 36.2 13.58 36.76 14.04 37.22C14.44 37.66 15 37.93 15.62 37.93C15.87 37.93 16.02 37.77 16.02 37.56C16.02 37.37 15.87 37.22 15.66 37.22C15.21 37.22 14.85 37.06 14.54 36.76C14.25 36.46 14.08 36.05 14.08 35.58C14.08 35.14 14.25 34.73 14.54 34.43C14.96 34.12 15.31 33.97 15.71 33.97Z" fill="#000000" fill-opacity="1.000000" fill-rule="nonzero"/>
		<path id="Vector" d="M24.68 36.71C24.68 36.14 24.64 35.75 24.58 35.48C24.43 34.82 24.14 34.32 23.67 33.96C23.16 33.5 22.66 33.3 22 33.3C21.54 33.3 21.08 33.4 20.68 33.66C20.33 33.81 20.08 34.06 19.87 34.32L19.87 31.27C19.87 30.77 19.16 30.77 19.16 31.27L19.16 40.96C19.16 41.21 19.37 41.31 19.52 41.31C19.77 41.31 19.87 41.11 19.87 40.96L19.87 36.9C19.87 36.6 19.87 36.34 19.92 36.14C19.92 36 19.92 35.89 19.92 35.84C20.02 35.28 20.23 34.82 20.58 34.48C20.98 34.11 21.39 33.96 22 33.96C22.41 33.96 22.81 34.06 23.12 34.27C23.58 34.57 23.83 34.92 23.92 35.38C24.02 35.68 24.02 36.19 24.02 36.9L24.02 40.96C24.02 41.16 24.18 41.31 24.39 41.31C24.64 41.31 24.73 41.11 24.73 40.96L24.68 40.71L24.68 36.71Z" fill="#000000" fill-opacity="1.000000" fill-rule="nonzero"/>
		<path id="Vector" d="M32.5 34.48C31.68 33.66 30.73 33.25 29.6 33.25C28.5 33.25 27.48 33.66 26.71 34.48C25.9 35.28 25.5 36.25 25.5 37.36C25.5 38.48 25.9 39.5 26.71 40.25C27.52 41.06 28.5 41.48 29.65 41.48C30.82 41.48 31.78 41.06 32.55 40.25C33.36 39.44 33.76 38.48 33.76 37.31C33.76 36.14 33.36 35.23 32.5 34.48ZM27.17 39.79C26.51 39.13 26.15 38.32 26.15 37.36C26.15 36.4 26.51 35.58 27.17 34.87C27.83 34.21 28.64 33.86 29.65 33.86C30.57 33.86 31.43 34.21 32.09 34.87C32.75 35.53 33.1 36.34 33.1 37.31C33.1 38.27 32.75 39.13 32.04 39.79C31.38 40.46 30.57 40.81 29.6 40.81C28.69 40.81 27.83 40.46 27.17 39.79Z" fill="#000000" fill-opacity="1.000000" fill-rule="nonzero"/>
		<path id="Vector" d="M38.54 33.25C37.37 33.25 36.41 33.66 35.65 34.48C34.89 35.28 34.43 36.25 34.43 37.36C34.43 38.48 34.84 39.44 35.6 40.25L35.6 43.55C35.6 43.75 35.75 43.9 35.95 43.9C36.21 43.9 36.31 43.71 36.31 43.55L36.31 40.86C36.97 41.31 37.73 41.52 38.54 41.52C39.71 41.52 40.72 41.11 41.48 40.35C42.29 39.54 42.75 38.63 42.75 37.46C42.75 36.29 42.29 35.33 41.48 34.52C40.67 33.66 39.71 33.25 38.54 33.25ZM35.95 37C35.8 37 35.6 37.16 35.6 37.41L35.6 39.13C35.29 38.63 35.14 38.02 35.14 37.36C35.14 36.46 35.5 35.58 36.16 34.92C36.87 34.21 37.68 33.91 38.64 33.91C39.6 33.91 40.42 34.26 41.13 34.92C41.79 35.58 42.14 36.4 42.14 37.41C42.14 38.37 41.79 39.18 41.08 39.84C40.42 40.5 39.6 40.86 38.64 40.86C37.78 40.86 37.02 40.55 36.36 39.96L36.36 37.41C36.31 37.05 36.11 37 35.95 37Z" fill="#000000" fill-opacity="1.000000" fill-rule="nonzero"/>
	</g>
</svg>
